<mxfile host="app.diagrams.net" agent="Mozilla/5.0 (Macintosh; Intel Mac OS X 10_15_7) AppleWebKit/537.36 (KHTML, like Gecko) Chrome/130.0.813.782 Safari/537.36" version="26.1.3">
  <diagram name="Page-1" id="project-stack">
    <mxGraphModel dx="77022" dy="41319" grid="1" gridSize="10" guides="1" tooltips="1" connect="1" arrows="1" fold="1" page="1" pageScale="1" pageWidth="827" pageHeight="1169" math="0" shadow="0">
      <root>
        <mxCell id="0" />
        <mxCell id="1" parent="0" />
        
        <!-- Problem Description -->
        <mxCell id="problem" value="Problem: Conference Content Management" style="swimlane;whiteSpace=wrap;html=1;fillColor=#f5f5f5;strokeColor=#666666;fontColor=#333333;fontSize=14;" parent="1" vertex="1">
          <mxGeometry x="40" y="40" width="200" height="60" as="geometry" />
        </mxCell>
        <mxCell id="problem_desc" value="• Manage conference content&#xa;• Enable semantic search&#xa;• Generate AI summaries&#xa;• Process multiple file types" style="text;html=1;strokeColor=none;fillColor=none;align=left;verticalAlign=top;spacingLeft=4;spacingTop=4;whiteSpace=wrap;rounded=0;fontSize=12;" parent="problem" vertex="1">
          <mxGeometry x="20" y="30" width="160" height="20" as="geometry" />
        </mxCell>
        
        <!-- Frontend -->
        <mxCell id="frontend" value="Angular Frontend" style="swimlane;whiteSpace=wrap;html=1;fillColor=#dd0031;strokeColor=#dd0031;fontColor=white;fontSize=14;" parent="1" vertex="1">
          <mxGeometry x="40" y="140" width="200" height="120" as="geometry" />
        </mxCell>
        <mxCell id="search" value="🔍 Search Component" style="rounded=1;whiteSpace=wrap;html=1;fillColor=#dd0031;strokeColor=#dd0031;fontColor=white;" parent="frontend" vertex="1">
          <mxGeometry x="20" y="40" width="160" height="30" as="geometry" />
        </mxCell>
        <mxCell id="content" value="📄 Content Detail" style="rounded=1;whiteSpace=wrap;html=1;fillColor=#dd0031;strokeColor=#dd0031;fontColor=white;" parent="frontend" vertex="1">
          <mxGeometry x="20" y="80" width="160" height="30" as="geometry" />
        </mxCell>
        
        <!-- Backend -->
        <mxCell id="backend" value="Flask Backend" style="swimlane;whiteSpace=wrap;html=1;fillColor=#2c3e50;strokeColor=#2c3e50;fontColor=white;fontSize=14;" parent="1" vertex="1">
          <mxGeometry x="40" y="300" width="200" height="200" as="geometry" />
        </mxCell>
        <mxCell id="api" value="🔌 REST API" style="rounded=1;whiteSpace=wrap;html=1;fillColor=#2c3e50;strokeColor=#2c3e50;fontColor=white;" parent="backend" vertex="1">
          <mxGeometry x="20" y="40" width="160" height="30" as="geometry" />
        </mxCell>
        <mxCell id="services" value="⚙️ Services Layer" style="rounded=1;whiteSpace=wrap;html=1;fillColor=#2c3e50;strokeColor=#2c3e50;fontColor=white;" parent="backend" vertex="1">
          <mxGeometry x="20" y="80" width="160" height="30" as="geometry" />
        </mxCell>
        <mxCell id="service_details" value="• AI Service&#xa;• Content Service&#xa;• Embedding Service&#xa;• RAG Service" style="text;html=1;strokeColor=none;fillColor=none;align=left;verticalAlign=top;spacingLeft=4;spacingTop=4;whiteSpace=wrap;rounded=0;fontSize=10;" parent="backend" vertex="1">
          <mxGeometry x="40" y="120" width="120" height="40" as="geometry" />
        </mxCell>
        <mxCell id="repos" value="📦 Repository Layer" style="rounded=1;whiteSpace=wrap;html=1;fillColor=#2c3e50;strokeColor=#2c3e50;fontColor=white;" parent="backend" vertex="1">
          <mxGeometry x="20" y="170" width="160" height="30" as="geometry" />
        </mxCell>
        <mxCell id="repo_details" value="• Firestore Repo&#xa;• Storage Repo&#xa;• Vector Repo" style="text;html=1;strokeColor=none;fillColor=none;align=left;verticalAlign=top;spacingLeft=4;spacingTop=4;whiteSpace=wrap;rounded=0;fontSize=10;" parent="backend" vertex="1">
          <mxGeometry x="40" y="210" width="120" height="40" as="geometry" />
        </mxCell>
        
        <!-- Google Cloud -->
        <mxCell id="gcp" value="Google Cloud Platform" style="swimlane;whiteSpace=wrap;html=1;fillColor=#4285f4;strokeColor=#4285f4;fontColor=white;fontSize=14;" parent="1" vertex="1">
          <mxGeometry x="40" y="540" width="200" height="160" as="geometry" />
        </mxCell>
        <mxCell id="vertex" value="🤖 Vertex AI" style="rounded=1;whiteSpace=wrap;html=1;fillColor=#4285f4;strokeColor=#4285f4;fontColor=white;" parent="gcp" vertex="1">
          <mxGeometry x="20" y="40" width="160" height="30" as="geometry" />
        </mxCell>
        <mxCell id="vertex_desc" value="• Text Generation&#xa;• Embeddings&#xa;• Summarization" style="text;html=1;strokeColor=none;fillColor=none;align=left;verticalAlign=top;spacingLeft=4;spacingTop=4;whiteSpace=wrap;rounded=0;fontSize=10;" parent="gcp" vertex="1">
          <mxGeometry x="40" y="80" width="120" height="30" as="geometry" />
        </mxCell>
        <mxCell id="firestore" value="🗄️ Firestore" style="rounded=1;whiteSpace=wrap;html=1;fillColor=#34a853;strokeColor=#34a853;fontColor=white;" parent="gcp" vertex="1">
          <mxGeometry x="20" y="120" width="160" height="30" as="geometry" />
        </mxCell>
        <mxCell id="storage" value="💾 Cloud Storage" style="rounded=1;whiteSpace=wrap;html=1;fillColor=#4285f4;strokeColor=#4285f4;fontColor=white;" parent="gcp" vertex="1">
          <mxGeometry x="20" y="160" width="160" height="30" as="geometry" />
        </mxCell>
        
        <!-- Connections -->
        <mxCell id="conn1" value="" style="endArrow=classic;html=1;rounded=0;exitX=0.5;exitY=1;entryX=0.5;entryY=0;" parent="1" source="frontend" target="backend" edge="1" />
        <mxCell id="conn2" value="" style="endArrow=classic;html=1;rounded=0;exitX=0.5;exitY=1;entryX=0.5;entryY=0;" parent="1" source="backend" target="gcp" edge="1" />
        
        <!-- Tech Stack Labels -->
        <mxCell id="tech_stack" value="Solution Tech Stack" style="text;html=1;strokeColor=none;fillColor=none;align=center;verticalAlign=middle;whiteSpace=wrap;rounded=0;fontSize=24;fontStyle=0" parent="1" vertex="1">
          <mxGeometry x="40" y="20" width="200" height="20" as="geometry" />
        </mxCell>
      </root>
    </mxGraphModel>
  </diagram>
</mxfile> 